<svg xmlns="http://www.w3.org/2000/svg" viewBox="0 0 200 200">
  <!-- Background -->
  <circle cx="100" cy="100" r="90" fill="#ffe0b2"/>
  
  <!-- Face -->
  <circle cx="100" cy="100" r="50" fill="#ffcc80"/>
  
  <!-- Pirate Hat -->
  <path d="M50 70 L150 70 L130 40 L70 40 Z" fill="#263238"/>
  <rect x="40" y="70" width="120" height="15" fill="#263238"/>
  
  <!-- Skull on Hat -->
  <circle cx="100" cy="60" r="10" fill="white"/>
  <circle cx="95" cy="55" r="2" fill="black"/>
  <circle cx="105" cy="55" r="2" fill="black"/>
  <path d="M95 65 L105 65" stroke="black" stroke-width="1" fill="none"/>
  <path d="M93 67 L107 67" stroke="black" stroke-width="1" fill="none"/>
  
  <!-- Eye Patch -->
  <path d="M75 90 Q100 80 125 90" stroke="black" stroke-width="2" fill="none"/>
  <path d="M80 90 Q100 82 120 90 Q100 98 80 90" fill="black"/>
  
  <!-- Good Eye -->
  <circle cx="115" cy="100" r="8" fill="white"/>
  <circle cx="115" cy="100" r="4" fill="#5d4037"/>
  
  <!-- Mouth -->
  <path d="M80 125 Q100 140 120 125" stroke="#5d4037" stroke-width="3" fill="none"/>
  
  <!-- Beard -->
  <path d="M70 110 Q100 160 130 110" fill="#5d4037" opacity="0.6"/>
  
  <!-- Earring -->
  <circle cx="135" cy="110" r="4" fill="#ffd600"/>
  
  <!-- Scar -->
  <path d="M80 80 L90 95" stroke="#bf360c" stroke-width="2"/>
</svg>
