<svg xmlns="http://www.w3.org/2000/svg" viewBox="0 0 200 200">
  <!-- Background -->
  <circle cx="100" cy="100" r="90" fill="#673ab7" opacity="0.3"/>
  
  <!-- Wizard Hat -->
  <path d="M60 90 L100 20 L140 90" fill="#4527a0"/>
  <ellipse cx="100" cy="90" rx="45" ry="10" fill="#4527a0"/>
  
  <!-- Stars on Hat -->
  <polygon points="75,70 77,65 79,70 84,70 80,75 82,80 77,77 72,80 74,75 70,70" fill="#ffeb3b"/>
  <polygon points="105,50 107,45 109,50 114,50 110,55 112,60 107,57 102,60 104,55 100,50" fill="#ffeb3b"/>
  <polygon points="125,75 127,70 129,75 134,75 130,80 132,85 127,82 122,85 124,80 120,75" fill="#ffeb3b"/>
  
  <!-- Face -->
  <circle cx="100" cy="110" r="25" fill="#fff8e1"/>
  
  <!-- Eyes -->
  <ellipse cx="90" cy="105" rx="5" ry="3" fill="#3e2723"/>
  <ellipse cx="110" cy="105" rx="5" ry="3" fill="#3e2723"/>
  
  <!-- Beard -->
  <path d="M75 115 Q100 150 125 115" fill="#e0e0e0"/>
  
  <!-- Robe -->
  <path d="M70 125 L60 180 L140 180 L130 125" fill="#512da8"/>
  
  <!-- Magical Orb -->
  <circle cx="100" cy="160" r="15" fill="#29b6f6" opacity="0.8"/>
  <circle cx="95" cy="155" r="5" fill="white" opacity="0.6"/>
</svg>
